<?xml version="1.0" encoding="UTF-8" standalone="no"?>
<!DOCTYPE svg PUBLIC "-//W3C//DTD SVG 1.1//EN"
 "http://www.w3.org/Graphics/SVG/1.1/DTD/svg11.dtd">
<!-- Generated by graphviz version 2.40.1 (20161225.0304)
 -->
<!-- Title: undefined Pages: 1 -->
<svg width="535pt" height="608pt"
 viewBox="0.00 0.00 534.60 607.60" xmlns="http://www.w3.org/2000/svg" xmlns:xlink="http://www.w3.org/1999/xlink">
<g id="graph0" class="graph" transform="scale(1 1) rotate(0) translate(28.8 557.8)">
<title>undefined</title>
<polygon fill="#ffffff" stroke="transparent" points="-28.8,49.8 -28.8,-557.8 505.8,-557.8 505.8,49.8 -28.8,49.8"/>
<text text-anchor="start" x="167.5" y="12.6" font-family="Helvetica,sans-Serif" font-weight="bold" font-size="12.00" fill="#000000">ratom&#45;db&#45;schema.sqlite3</text>
<!-- configuration -->
<g id="node1" class="node">
<title>configuration</title>
<path fill="none" stroke="#000000" d="M345.2381,-407.1409C345.2381,-407.1409 465.2381,-407.1409 465.2381,-407.1409 471.2381,-407.1409 477.2381,-413.1409 477.2381,-419.1409 477.2381,-419.1409 477.2381,-482.1409 477.2381,-482.1409 477.2381,-488.1409 471.2381,-494.1409 465.2381,-494.1409 465.2381,-494.1409 345.2381,-494.1409 345.2381,-494.1409 339.2381,-494.1409 333.2381,-488.1409 333.2381,-482.1409 333.2381,-482.1409 333.2381,-419.1409 333.2381,-419.1409 333.2381,-413.1409 339.2381,-407.1409 345.2381,-407.1409"/>
<text text-anchor="start" x="362.2381" y="-473.7409" font-family="Helvetica,sans-Serif" font-weight="bold" font-size="13.00" fill="#000000">configuration</text>
<polyline fill="none" stroke="#000000" points="333.2381,-464.1409 477.2381,-464.1409 "/>
<text text-anchor="start" x="340.2381" y="-450.0409" font-family="Helvetica,sans-Serif" font-size="12.00" fill="#000000">id* </text>
<text text-anchor="start" x="358.2381" y="-450.0409" font-family="Helvetica,sans-Serif" font-weight="bold" font-size="12.00" fill="#000000">integer</text>
<text text-anchor="start" x="340.2381" y="-433.0409" font-family="Helvetica,sans-Serif" font-size="12.00" fill="#000000">name </text>
<text text-anchor="start" x="374.2381" y="-433.0409" font-family="Helvetica,sans-Serif" font-weight="bold" font-size="12.00" fill="#000000">varchar</text>
<text text-anchor="start" x="340.2381" y="-416.0409" font-family="Helvetica,sans-Serif" font-size="12.00" fill="#000000">value </text>
<text text-anchor="start" x="373.2381" y="-416.0409" font-family="Helvetica,sans-Serif" font-weight="bold" font-size="12.00" fill="#000000">varchar</text>
</g>
<!-- file_report -->
<g id="node2" class="node">
<title>file_report</title>
<path fill="none" stroke="#000000" d="M12.0006,-171.6714C12.0006,-171.6714 132.0006,-171.6714 132.0006,-171.6714 138.0006,-171.6714 144.0006,-177.6714 144.0006,-183.6714 144.0006,-183.6714 144.0006,-331.6714 144.0006,-331.6714 144.0006,-337.6714 138.0006,-343.6714 132.0006,-343.6714 132.0006,-343.6714 12.0006,-343.6714 12.0006,-343.6714 6.0006,-343.6714 .0006,-337.6714 .0006,-331.6714 .0006,-331.6714 .0006,-183.6714 .0006,-183.6714 .0006,-177.6714 6.0006,-171.6714 12.0006,-171.6714"/>
<text text-anchor="start" x="39.0006" y="-323.2714" font-family="Helvetica,sans-Serif" font-weight="bold" font-size="13.00" fill="#000000">file_report</text>
<polyline fill="none" stroke="#000000" points=".0006,-313.6714 144.0006,-313.6714 "/>
<text text-anchor="start" x="7.0006" y="-300.0714" font-family="Helvetica,sans-Serif" font-size="12.00" fill="#000000">id* </text>
<text text-anchor="start" x="25.0006" y="-300.0714" font-family="Helvetica,sans-Serif" font-weight="bold" font-size="12.00" fill="#000000">integer</text>
<text text-anchor="start" x="7.0006" y="-283.0714" font-family="Helvetica,sans-Serif" font-size="12.00" fill="#000000">path </text>
<text text-anchor="start" x="34.0006" y="-283.0714" font-family="Helvetica,sans-Serif" font-weight="bold" font-size="12.00" fill="#000000">varchar</text>
<text text-anchor="start" x="7.0006" y="-266.0714" font-family="Helvetica,sans-Serif" font-size="12.00" fill="#000000">name </text>
<text text-anchor="start" x="41.0006" y="-266.0714" font-family="Helvetica,sans-Serif" font-weight="bold" font-size="12.00" fill="#000000">varchar</text>
<text text-anchor="start" x="7.0006" y="-249.0714" font-family="Helvetica,sans-Serif" font-size="12.00" fill="#000000">size </text>
<text text-anchor="start" x="32.0006" y="-249.0714" font-family="Helvetica,sans-Serif" font-weight="bold" font-size="12.00" fill="#000000">integer</text>
<text text-anchor="start" x="7.0006" y="-232.0714" font-family="Helvetica,sans-Serif" font-size="12.00" fill="#000000">md5 </text>
<text text-anchor="start" x="34.0006" y="-232.0714" font-family="Helvetica,sans-Serif" font-weight="bold" font-size="12.00" fill="#000000">varchar</text>
<text text-anchor="start" x="7.0006" y="-215.0714" font-family="Helvetica,sans-Serif" font-size="12.00" fill="#000000">sha256 </text>
<text text-anchor="start" x="50.0006" y="-215.0714" font-family="Helvetica,sans-Serif" font-weight="bold" font-size="12.00" fill="#000000">varchar</text>
<text text-anchor="start" x="7.0006" y="-198.0714" font-family="Helvetica,sans-Serif" font-size="12.00" fill="#000000">error </text>
<text text-anchor="start" x="35.0006" y="-198.0714" font-family="Helvetica,sans-Serif" font-weight="bold" font-size="12.00" fill="#000000">varchar</text>
<text text-anchor="start" x="7.0006" y="-181.0714" font-family="Helvetica,sans-Serif" font-size="12.00" fill="#000000">msg_count </text>
<text text-anchor="start" x="69.0006" y="-181.0714" font-family="Helvetica,sans-Serif" font-weight="bold" font-size="12.00" fill="#000000">integer</text>
</g>
<!-- message -->
<g id="node3" class="node">
<title>message</title>
<path fill="none" stroke="#000000" d="M218.9131,-236.1238C218.9131,-236.1238 378.9131,-236.1238 378.9131,-236.1238 384.9131,-236.1238 390.9131,-242.1238 390.9131,-248.1238 390.9131,-248.1238 390.9131,-345.1238 390.9131,-345.1238 390.9131,-351.1238 384.9131,-357.1238 378.9131,-357.1238 378.9131,-357.1238 218.9131,-357.1238 218.9131,-357.1238 212.9131,-357.1238 206.9131,-351.1238 206.9131,-345.1238 206.9131,-345.1238 206.9131,-248.1238 206.9131,-248.1238 206.9131,-242.1238 212.9131,-236.1238 218.9131,-236.1238"/>
<text text-anchor="start" x="269.9131" y="-336.7238" font-family="Helvetica,sans-Serif" font-weight="bold" font-size="13.00" fill="#000000">message</text>
<polyline fill="none" stroke="#000000" points="206.9131,-327.1238 390.9131,-327.1238 "/>
<text text-anchor="start" x="213.9131" y="-313.0238" font-family="Helvetica,sans-Serif" font-size="12.00" fill="#000000">id* </text>
<text text-anchor="start" x="231.9131" y="-313.0238" font-family="Helvetica,sans-Serif" font-weight="bold" font-size="12.00" fill="#000000">integer</text>
<text text-anchor="start" x="213.9131" y="-296.0238" font-family="Helvetica,sans-Serif" font-size="12.00" fill="#000000">pff_identifier </text>
<text text-anchor="start" x="282.9131" y="-296.0238" font-family="Helvetica,sans-Serif" font-weight="bold" font-size="12.00" fill="#000000">integer</text>
<text text-anchor="start" x="213.9131" y="-279.0238" font-family="Helvetica,sans-Serif" font-size="12.00" fill="#000000">processing_start_time </text>
<text text-anchor="start" x="334.9131" y="-279.0238" font-family="Helvetica,sans-Serif" font-weight="bold" font-size="12.00" fill="#000000">datetime</text>
<text text-anchor="start" x="213.9131" y="-262.0238" font-family="Helvetica,sans-Serif" font-size="12.00" fill="#000000">processing_end_time </text>
<text text-anchor="start" x="331.9131" y="-262.0238" font-family="Helvetica,sans-Serif" font-weight="bold" font-size="12.00" fill="#000000">datetime</text>
<text text-anchor="start" x="213.9131" y="-245.0238" font-family="Helvetica,sans-Serif" font-size="12.00" fill="#000000">file_report_id </text>
<text text-anchor="start" x="286.9131" y="-245.0238" font-family="Helvetica,sans-Serif" font-weight="bold" font-size="12.00" fill="#000000">integer</text>
</g>
<!-- message&#45;&gt;file_report -->
<g id="edge1" class="edge">
<title>message&#45;&gt;file_report</title>
<path fill="none" stroke="#000000" stroke-width=".9" d="M206.6191,-280.7804C188.5306,-277.6753 169.698,-274.4424 152.0495,-271.4128"/>
<polygon fill="#000000" stroke="#000000" stroke-width=".9" points="152.3894,-268.6303 144.0309,-270.0363 151.4419,-274.1496 152.3894,-268.6303"/>
</g>
<!-- attachment -->
<g id="node4" class="node">
<title>attachment</title>
<path fill="none" stroke="#000000" d="M161.1461,-.2438C161.1461,-.2438 281.1461,-.2438 281.1461,-.2438 287.1461,-.2438 293.1461,-6.2438 293.1461,-12.2438 293.1461,-12.2438 293.1461,-126.2438 293.1461,-126.2438 293.1461,-132.2438 287.1461,-138.2438 281.1461,-138.2438 281.1461,-138.2438 161.1461,-138.2438 161.1461,-138.2438 155.1461,-138.2438 149.1461,-132.2438 149.1461,-126.2438 149.1461,-126.2438 149.1461,-12.2438 149.1461,-12.2438 149.1461,-6.2438 155.1461,-.2438 161.1461,-.2438"/>
<text text-anchor="start" x="185.1461" y="-117.8438" font-family="Helvetica,sans-Serif" font-weight="bold" font-size="13.00" fill="#000000">attachment</text>
<polyline fill="none" stroke="#000000" points="149.1461,-108.2438 293.1461,-108.2438 "/>
<text text-anchor="start" x="156.1461" y="-94.6438" font-family="Helvetica,sans-Serif" font-size="12.00" fill="#000000">id* </text>
<text text-anchor="start" x="174.1461" y="-94.6438" font-family="Helvetica,sans-Serif" font-weight="bold" font-size="12.00" fill="#000000">integer</text>
<text text-anchor="start" x="156.1461" y="-77.6438" font-family="Helvetica,sans-Serif" font-size="12.00" fill="#000000">name </text>
<text text-anchor="start" x="190.1461" y="-77.6438" font-family="Helvetica,sans-Serif" font-weight="bold" font-size="12.00" fill="#000000">varchar</text>
<text text-anchor="start" x="156.1461" y="-60.6438" font-family="Helvetica,sans-Serif" font-size="12.00" fill="#000000">mime_type </text>
<text text-anchor="start" x="218.1461" y="-60.6438" font-family="Helvetica,sans-Serif" font-weight="bold" font-size="12.00" fill="#000000">varchar</text>
<text text-anchor="start" x="156.1461" y="-43.6438" font-family="Helvetica,sans-Serif" font-size="12.00" fill="#000000">size </text>
<text text-anchor="start" x="181.1461" y="-43.6438" font-family="Helvetica,sans-Serif" font-weight="bold" font-size="12.00" fill="#000000">integer</text>
<text text-anchor="start" x="156.1461" y="-26.6438" font-family="Helvetica,sans-Serif" font-size="12.00" fill="#000000">message_id </text>
<text text-anchor="start" x="225.1461" y="-26.6438" font-family="Helvetica,sans-Serif" font-weight="bold" font-size="12.00" fill="#000000">integer</text>
<text text-anchor="start" x="156.1461" y="-9.6438" font-family="Helvetica,sans-Serif" font-size="12.00" fill="#000000">file_report_id </text>
<text text-anchor="start" x="229.1461" y="-9.6438" font-family="Helvetica,sans-Serif" font-weight="bold" font-size="12.00" fill="#000000">integer</text>
</g>
<!-- attachment&#45;&gt;file_report -->
<g id="edge2" class="edge">
<title>attachment&#45;&gt;file_report</title>
<path fill="none" stroke="#000000" stroke-width=".9" d="M166.4567,-138.3374C159.4992,-147.1274 152.2926,-156.2321 145.1042,-165.3138"/>
<polygon fill="#000000" stroke="#000000" stroke-width=".9" points="142.9034,-163.5827 140.1338,-171.5933 147.2944,-167.0583 142.9034,-163.5827"/>
</g>
<!-- attachment&#45;&gt;message -->
<g id="edge3" class="edge">
<title>attachment&#45;&gt;message</title>
<path fill="none" stroke="#000000" stroke-width=".9" d="M244.7955,-138.3914C254.5169,-166.8155 265.7474,-199.6517 275.4494,-228.0192"/>
<polygon fill="#000000" stroke="#000000" stroke-width=".9" points="272.9045,-229.231 278.1428,-235.8944 278.2032,-227.4187 272.9045,-229.231"/>
</g>
<!-- entity -->
<g id="node5" class="node">
<title>entity</title>
<path fill="none" stroke="#000000" d="M94.2156,-390.14C94.2156,-390.14 214.2156,-390.14 214.2156,-390.14 220.2156,-390.14 226.2156,-396.14 226.2156,-402.14 226.2156,-402.14 226.2156,-516.14 226.2156,-516.14 226.2156,-522.14 220.2156,-528.14 214.2156,-528.14 214.2156,-528.14 94.2156,-528.14 94.2156,-528.14 88.2156,-528.14 82.2156,-522.14 82.2156,-516.14 82.2156,-516.14 82.2156,-402.14 82.2156,-402.14 82.2156,-396.14 88.2156,-390.14 94.2156,-390.14"/>
<text text-anchor="start" x="136.2156" y="-507.74" font-family="Helvetica,sans-Serif" font-weight="bold" font-size="13.00" fill="#000000">entity</text>
<polyline fill="none" stroke="#000000" points="82.2156,-498.14 226.2156,-498.14 "/>
<text text-anchor="start" x="89.2156" y="-484.54" font-family="Helvetica,sans-Serif" font-size="12.00" fill="#000000">id* </text>
<text text-anchor="start" x="107.2156" y="-484.54" font-family="Helvetica,sans-Serif" font-weight="bold" font-size="12.00" fill="#000000">integer</text>
<text text-anchor="start" x="89.2156" y="-467.54" font-family="Helvetica,sans-Serif" font-size="12.00" fill="#000000">text </text>
<text text-anchor="start" x="111.2156" y="-467.54" font-family="Helvetica,sans-Serif" font-weight="bold" font-size="12.00" fill="#000000">varchar</text>
<text text-anchor="start" x="89.2156" y="-450.54" font-family="Helvetica,sans-Serif" font-size="12.00" fill="#000000">label_ </text>
<text text-anchor="start" x="126.2156" y="-450.54" font-family="Helvetica,sans-Serif" font-weight="bold" font-size="12.00" fill="#000000">varchar</text>
<text text-anchor="start" x="89.2156" y="-433.54" font-family="Helvetica,sans-Serif" font-size="12.00" fill="#000000">filepath </text>
<text text-anchor="start" x="132.2156" y="-433.54" font-family="Helvetica,sans-Serif" font-weight="bold" font-size="12.00" fill="#000000">varchar</text>
<text text-anchor="start" x="89.2156" y="-416.54" font-family="Helvetica,sans-Serif" font-size="12.00" fill="#000000">message_id </text>
<text text-anchor="start" x="158.2156" y="-416.54" font-family="Helvetica,sans-Serif" font-weight="bold" font-size="12.00" fill="#000000">integer</text>
<text text-anchor="start" x="89.2156" y="-399.54" font-family="Helvetica,sans-Serif" font-size="12.00" fill="#000000">file_report_id </text>
<text text-anchor="start" x="162.2156" y="-399.54" font-family="Helvetica,sans-Serif" font-weight="bold" font-size="12.00" fill="#000000">integer</text>
</g>
<!-- entity&#45;&gt;file_report -->
<g id="edge4" class="edge">
<title>entity&#45;&gt;file_report</title>
<path fill="none" stroke="#000000" stroke-width=".9" d="M126.0369,-390.0879C120.9466,-377.614 115.5618,-364.4185 110.2414,-351.3808"/>
<polygon fill="#000000" stroke="#000000" stroke-width=".9" points="112.7341,-350.0783 107.1189,-343.7292 107.5492,-352.1941 112.7341,-350.0783"/>
</g>
<!-- entity&#45;&gt;message -->
<g id="edge5" class="edge">
<title>entity&#45;&gt;message</title>
<path fill="none" stroke="#000000" stroke-width=".9" d="M216.0001,-389.7471C223.8014,-380.9851 231.7702,-372.035 239.5331,-363.3161"/>
<polygon fill="#000000" stroke="#000000" stroke-width=".9" points="241.6413,-365.159 244.8699,-357.3221 237.4589,-361.4351 241.6413,-365.159"/>
</g>
</g>
</svg>
