<?xml version="1.0" encoding="UTF-8" standalone="no"?>
<!DOCTYPE svg PUBLIC "-//W3C//DTD SVG 1.1//EN"
 "http://www.w3.org/Graphics/SVG/1.1/DTD/svg11.dtd">
<!-- Generated by graphviz version 2.40.1 (20161225.0304)
 -->
<!-- Title: undefined Pages: 1 -->
<svg width="482pt" height="389pt"
 viewBox="0.00 0.00 481.60 388.60" xmlns="http://www.w3.org/2000/svg" xmlns:xlink="http://www.w3.org/1999/xlink">
<g id="graph0" class="graph" transform="scale(1 1) rotate(0) translate(28.8 338.8)">
<title>undefined</title>
<polygon fill="#ffffff" stroke="transparent" points="-28.8,49.8 -28.8,-338.8 452.8,-338.8 452.8,49.8 -28.8,49.8"/>
<text text-anchor="start" x="141" y="12.6" font-family="Helvetica,sans-Serif" font-weight="bold" font-size="12.00" fill="#000000">ratom&#45;db&#45;schema.sqlite3</text>
<!-- configuration -->
<g id="node1" class="node">
<title>configuration</title>
<path fill="none" stroke="#000000" d="M292.2381,-56.1409C292.2381,-56.1409 412.2381,-56.1409 412.2381,-56.1409 418.2381,-56.1409 424.2381,-62.1409 424.2381,-68.1409 424.2381,-68.1409 424.2381,-131.1409 424.2381,-131.1409 424.2381,-137.1409 418.2381,-143.1409 412.2381,-143.1409 412.2381,-143.1409 292.2381,-143.1409 292.2381,-143.1409 286.2381,-143.1409 280.2381,-137.1409 280.2381,-131.1409 280.2381,-131.1409 280.2381,-68.1409 280.2381,-68.1409 280.2381,-62.1409 286.2381,-56.1409 292.2381,-56.1409"/>
<text text-anchor="start" x="309.2381" y="-122.7409" font-family="Helvetica,sans-Serif" font-weight="bold" font-size="13.00" fill="#000000">configuration</text>
<polyline fill="none" stroke="#000000" points="280.2381,-113.1409 424.2381,-113.1409 "/>
<text text-anchor="start" x="287.2381" y="-99.0409" font-family="Helvetica,sans-Serif" font-size="12.00" fill="#000000">id* </text>
<text text-anchor="start" x="305.2381" y="-99.0409" font-family="Helvetica,sans-Serif" font-weight="bold" font-size="12.00" fill="#000000">integer</text>
<text text-anchor="start" x="287.2381" y="-82.0409" font-family="Helvetica,sans-Serif" font-size="12.00" fill="#000000">name </text>
<text text-anchor="start" x="321.2381" y="-82.0409" font-family="Helvetica,sans-Serif" font-weight="bold" font-size="12.00" fill="#000000">varchar</text>
<text text-anchor="start" x="287.2381" y="-65.0409" font-family="Helvetica,sans-Serif" font-size="12.00" fill="#000000">value </text>
<text text-anchor="start" x="320.2381" y="-65.0409" font-family="Helvetica,sans-Serif" font-weight="bold" font-size="12.00" fill="#000000">varchar</text>
</g>
<!-- file_report -->
<g id="node2" class="node">
<title>file_report</title>
<path fill="none" stroke="#000000" d="M11.6909,-171.9884C11.6909,-171.9884 131.6909,-171.9884 131.6909,-171.9884 137.6909,-171.9884 143.6909,-177.9884 143.6909,-183.9884 143.6909,-183.9884 143.6909,-297.9884 143.6909,-297.9884 143.6909,-303.9884 137.6909,-309.9884 131.6909,-309.9884 131.6909,-309.9884 11.6909,-309.9884 11.6909,-309.9884 5.6909,-309.9884 -.3091,-303.9884 -.3091,-297.9884 -.3091,-297.9884 -.3091,-183.9884 -.3091,-183.9884 -.3091,-177.9884 5.6909,-171.9884 11.6909,-171.9884"/>
<text text-anchor="start" x="38.6909" y="-289.5884" font-family="Helvetica,sans-Serif" font-weight="bold" font-size="13.00" fill="#000000">file_report</text>
<polyline fill="none" stroke="#000000" points="-.3091,-279.9884 143.6909,-279.9884 "/>
<text text-anchor="start" x="6.6909" y="-266.3884" font-family="Helvetica,sans-Serif" font-size="12.00" fill="#000000">id* </text>
<text text-anchor="start" x="24.6909" y="-266.3884" font-family="Helvetica,sans-Serif" font-weight="bold" font-size="12.00" fill="#000000">integer</text>
<text text-anchor="start" x="6.6909" y="-249.3884" font-family="Helvetica,sans-Serif" font-size="12.00" fill="#000000">path </text>
<text text-anchor="start" x="33.6909" y="-249.3884" font-family="Helvetica,sans-Serif" font-weight="bold" font-size="12.00" fill="#000000">varchar</text>
<text text-anchor="start" x="6.6909" y="-232.3884" font-family="Helvetica,sans-Serif" font-size="12.00" fill="#000000">name </text>
<text text-anchor="start" x="40.6909" y="-232.3884" font-family="Helvetica,sans-Serif" font-weight="bold" font-size="12.00" fill="#000000">varchar</text>
<text text-anchor="start" x="6.6909" y="-215.3884" font-family="Helvetica,sans-Serif" font-size="12.00" fill="#000000">size </text>
<text text-anchor="start" x="31.6909" y="-215.3884" font-family="Helvetica,sans-Serif" font-weight="bold" font-size="12.00" fill="#000000">integer</text>
<text text-anchor="start" x="6.6909" y="-198.3884" font-family="Helvetica,sans-Serif" font-size="12.00" fill="#000000">md5 </text>
<text text-anchor="start" x="33.6909" y="-198.3884" font-family="Helvetica,sans-Serif" font-weight="bold" font-size="12.00" fill="#000000">varchar</text>
<text text-anchor="start" x="6.6909" y="-181.3884" font-family="Helvetica,sans-Serif" font-size="12.00" fill="#000000">sha256 </text>
<text text-anchor="start" x="49.6909" y="-181.3884" font-family="Helvetica,sans-Serif" font-weight="bold" font-size="12.00" fill="#000000">varchar</text>
</g>
<!-- message -->
<g id="node3" class="node">
<title>message</title>
<path fill="none" stroke="#000000" d="M187.7105,-177.9388C187.7105,-177.9388 347.7105,-177.9388 347.7105,-177.9388 353.7105,-177.9388 359.7105,-183.9388 359.7105,-189.9388 359.7105,-189.9388 359.7105,-286.9388 359.7105,-286.9388 359.7105,-292.9388 353.7105,-298.9388 347.7105,-298.9388 347.7105,-298.9388 187.7105,-298.9388 187.7105,-298.9388 181.7105,-298.9388 175.7105,-292.9388 175.7105,-286.9388 175.7105,-286.9388 175.7105,-189.9388 175.7105,-189.9388 175.7105,-183.9388 181.7105,-177.9388 187.7105,-177.9388"/>
<text text-anchor="start" x="238.7105" y="-278.5388" font-family="Helvetica,sans-Serif" font-weight="bold" font-size="13.00" fill="#000000">message</text>
<polyline fill="none" stroke="#000000" points="175.7105,-268.9388 359.7105,-268.9388 "/>
<text text-anchor="start" x="182.7105" y="-254.8388" font-family="Helvetica,sans-Serif" font-size="12.00" fill="#000000">id* </text>
<text text-anchor="start" x="200.7105" y="-254.8388" font-family="Helvetica,sans-Serif" font-weight="bold" font-size="12.00" fill="#000000">integer</text>
<text text-anchor="start" x="182.7105" y="-237.8388" font-family="Helvetica,sans-Serif" font-size="12.00" fill="#000000">pff_identifier </text>
<text text-anchor="start" x="251.7105" y="-237.8388" font-family="Helvetica,sans-Serif" font-weight="bold" font-size="12.00" fill="#000000">integer</text>
<text text-anchor="start" x="182.7105" y="-220.8388" font-family="Helvetica,sans-Serif" font-size="12.00" fill="#000000">processing_start_time </text>
<text text-anchor="start" x="303.7105" y="-220.8388" font-family="Helvetica,sans-Serif" font-weight="bold" font-size="12.00" fill="#000000">datetime</text>
<text text-anchor="start" x="182.7105" y="-203.8388" font-family="Helvetica,sans-Serif" font-size="12.00" fill="#000000">processing_end_time </text>
<text text-anchor="start" x="300.7105" y="-203.8388" font-family="Helvetica,sans-Serif" font-weight="bold" font-size="12.00" fill="#000000">datetime</text>
<text text-anchor="start" x="182.7105" y="-186.8388" font-family="Helvetica,sans-Serif" font-size="12.00" fill="#000000">file_report_id </text>
<text text-anchor="start" x="255.7105" y="-186.8388" font-family="Helvetica,sans-Serif" font-weight="bold" font-size="12.00" fill="#000000">integer</text>
</g>
<!-- message&#45;&gt;file_report -->
<g id="edge1" class="edge">
<title>message&#45;&gt;file_report</title>
<path fill="none" stroke="#000000" stroke-width=".9" d="M175.4405,-239.6389C167.6377,-239.7404 159.7863,-239.8425 152.0849,-239.9427"/>
<polygon fill="#000000" stroke="#000000" stroke-width=".9" points="151.7592,-237.1466 143.7963,-240.0505 151.8321,-242.7461 151.7592,-237.1466"/>
</g>
<!-- entity -->
<g id="node4" class="node">
<title>entity</title>
<path fill="none" stroke="#000000" d="M107.4927,-.9556C107.4927,-.9556 227.4927,-.9556 227.4927,-.9556 233.4927,-.9556 239.4927,-6.9556 239.4927,-12.9556 239.4927,-12.9556 239.4927,-126.9556 239.4927,-126.9556 239.4927,-132.9556 233.4927,-138.9556 227.4927,-138.9556 227.4927,-138.9556 107.4927,-138.9556 107.4927,-138.9556 101.4927,-138.9556 95.4927,-132.9556 95.4927,-126.9556 95.4927,-126.9556 95.4927,-12.9556 95.4927,-12.9556 95.4927,-6.9556 101.4927,-.9556 107.4927,-.9556"/>
<text text-anchor="start" x="149.4927" y="-118.5556" font-family="Helvetica,sans-Serif" font-weight="bold" font-size="13.00" fill="#000000">entity</text>
<polyline fill="none" stroke="#000000" points="95.4927,-108.9556 239.4927,-108.9556 "/>
<text text-anchor="start" x="102.4927" y="-95.3556" font-family="Helvetica,sans-Serif" font-size="12.00" fill="#000000">id* </text>
<text text-anchor="start" x="120.4927" y="-95.3556" font-family="Helvetica,sans-Serif" font-weight="bold" font-size="12.00" fill="#000000">integer</text>
<text text-anchor="start" x="102.4927" y="-78.3556" font-family="Helvetica,sans-Serif" font-size="12.00" fill="#000000">text </text>
<text text-anchor="start" x="124.4927" y="-78.3556" font-family="Helvetica,sans-Serif" font-weight="bold" font-size="12.00" fill="#000000">varchar</text>
<text text-anchor="start" x="102.4927" y="-61.3556" font-family="Helvetica,sans-Serif" font-size="12.00" fill="#000000">label_ </text>
<text text-anchor="start" x="139.4927" y="-61.3556" font-family="Helvetica,sans-Serif" font-weight="bold" font-size="12.00" fill="#000000">varchar</text>
<text text-anchor="start" x="102.4927" y="-44.3556" font-family="Helvetica,sans-Serif" font-size="12.00" fill="#000000">filepath </text>
<text text-anchor="start" x="145.4927" y="-44.3556" font-family="Helvetica,sans-Serif" font-weight="bold" font-size="12.00" fill="#000000">varchar</text>
<text text-anchor="start" x="102.4927" y="-27.3556" font-family="Helvetica,sans-Serif" font-size="12.00" fill="#000000">message_id </text>
<text text-anchor="start" x="171.4927" y="-27.3556" font-family="Helvetica,sans-Serif" font-weight="bold" font-size="12.00" fill="#000000">integer</text>
<text text-anchor="start" x="102.4927" y="-10.3556" font-family="Helvetica,sans-Serif" font-size="12.00" fill="#000000">file_report_id </text>
<text text-anchor="start" x="175.4927" y="-10.3556" font-family="Helvetica,sans-Serif" font-weight="bold" font-size="12.00" fill="#000000">integer</text>
</g>
<!-- entity&#45;&gt;file_report -->
<g id="edge2" class="edge">
<title>entity&#45;&gt;file_report</title>
<path fill="none" stroke="#000000" stroke-width=".9" d="M128.8026,-139.0282C124.0558,-147.5025 119.1836,-156.2007 114.382,-164.7728"/>
<polygon fill="#000000" stroke="#000000" stroke-width=".9" points="111.8364,-163.588 110.3697,-171.936 116.7222,-166.3247 111.8364,-163.588"/>
</g>
<!-- entity&#45;&gt;message -->
<g id="edge3" class="edge">
<title>entity&#45;&gt;message</title>
<path fill="none" stroke="#000000" stroke-width=".9" d="M208.5443,-138.9703C214.7809,-149.4552 221.2112,-160.2656 227.4312,-170.7225"/>
<polygon fill="#000000" stroke="#000000" stroke-width=".9" points="225.2025,-172.4528 231.6988,-177.897 230.0154,-169.5899 225.2025,-172.4528"/>
</g>
</g>
</svg>
