<?xml version="1.0" encoding="UTF-8" standalone="no"?>
<!DOCTYPE svg PUBLIC "-//W3C//DTD SVG 1.1//EN"
 "http://www.w3.org/Graphics/SVG/1.1/DTD/svg11.dtd">
<!-- Generated by graphviz version 2.43.0 (0)
 -->
<!-- Title: undefined Pages: 1 -->
<svg width="670pt" height="479pt"
 viewBox="0.00 0.00 669.60 478.60" xmlns="http://www.w3.org/2000/svg" xmlns:xlink="http://www.w3.org/1999/xlink">
<g id="graph0" class="graph" transform="scale(1 1) rotate(0) translate(28.8 449.8)">
<title>undefined</title>
<polygon fill="white" stroke="transparent" points="-28.8,28.8 -28.8,-449.8 640.8,-449.8 640.8,28.8 -28.8,28.8"/>
<text text-anchor="start" x="251.5" y="-8.4" font-family="Helvetica,sans-Serif" font-weight="bold" font-size="12.00">ratomdb.sqlite3</text>
<!-- configuration -->
<g id="node1" class="node">
<title>configuration</title>
<path fill="none" stroke="black" d="M480,-333.5C480,-333.5 600,-333.5 600,-333.5 606,-333.5 612,-339.5 612,-345.5 612,-345.5 612,-408.5 612,-408.5 612,-414.5 606,-420.5 600,-420.5 600,-420.5 480,-420.5 480,-420.5 474,-420.5 468,-414.5 468,-408.5 468,-408.5 468,-345.5 468,-345.5 468,-339.5 474,-333.5 480,-333.5"/>
<text text-anchor="start" x="491" y="-400.1" font-family="Helvetica,sans-Serif" font-weight="bold" font-size="13.00">configuration</text>
<polyline fill="none" stroke="black" points="468,-390.5 612,-390.5 "/>
<text text-anchor="start" x="475" y="-376.4" font-family="Helvetica,sans-Serif" font-size="12.00">id* </text>
<text text-anchor="start" x="496" y="-376.4" font-family="Helvetica,sans-Serif" font-weight="bold" font-size="12.00">integer</text>
<text text-anchor="start" x="475" y="-359.4" font-family="Helvetica,sans-Serif" font-size="12.00">name </text>
<text text-anchor="start" x="514" y="-359.4" font-family="Helvetica,sans-Serif" font-weight="bold" font-size="12.00">varchar</text>
<text text-anchor="start" x="475" y="-342.4" font-family="Helvetica,sans-Serif" font-size="12.00">value </text>
<text text-anchor="start" x="512" y="-342.4" font-family="Helvetica,sans-Serif" font-weight="bold" font-size="12.00">varchar</text>
</g>
<!-- file_report -->
<g id="node2" class="node">
<title>file_report</title>
<path fill="none" stroke="black" d="M235.95,-21.5C235.95,-21.5 355.95,-21.5 355.95,-21.5 361.95,-21.5 367.95,-27.5 367.95,-33.5 367.95,-33.5 367.95,-181.5 367.95,-181.5 367.95,-187.5 361.95,-193.5 355.95,-193.5 355.95,-193.5 235.95,-193.5 235.95,-193.5 229.95,-193.5 223.95,-187.5 223.95,-181.5 223.95,-181.5 223.95,-33.5 223.95,-33.5 223.95,-27.5 229.95,-21.5 235.95,-21.5"/>
<text text-anchor="start" x="257.95" y="-173.1" font-family="Helvetica,sans-Serif" font-weight="bold" font-size="13.00">file_report</text>
<polyline fill="none" stroke="black" points="223.95,-163.5 367.95,-163.5 "/>
<text text-anchor="start" x="230.95" y="-149.9" font-family="Helvetica,sans-Serif" font-size="12.00">id* </text>
<text text-anchor="start" x="251.95" y="-149.9" font-family="Helvetica,sans-Serif" font-weight="bold" font-size="12.00">integer</text>
<text text-anchor="start" x="230.95" y="-132.9" font-family="Helvetica,sans-Serif" font-size="12.00">path </text>
<text text-anchor="start" x="261.95" y="-132.9" font-family="Helvetica,sans-Serif" font-weight="bold" font-size="12.00">varchar</text>
<text text-anchor="start" x="230.95" y="-115.9" font-family="Helvetica,sans-Serif" font-size="12.00">name </text>
<text text-anchor="start" x="269.95" y="-115.9" font-family="Helvetica,sans-Serif" font-weight="bold" font-size="12.00">varchar</text>
<text text-anchor="start" x="230.95" y="-98.9" font-family="Helvetica,sans-Serif" font-size="12.00">size </text>
<text text-anchor="start" x="257.95" y="-98.9" font-family="Helvetica,sans-Serif" font-weight="bold" font-size="12.00">integer</text>
<text text-anchor="start" x="230.95" y="-81.9" font-family="Helvetica,sans-Serif" font-size="12.00">md5 </text>
<text text-anchor="start" x="261.95" y="-81.9" font-family="Helvetica,sans-Serif" font-weight="bold" font-size="12.00">varchar</text>
<text text-anchor="start" x="230.95" y="-64.9" font-family="Helvetica,sans-Serif" font-size="12.00">sha256 </text>
<text text-anchor="start" x="278.95" y="-64.9" font-family="Helvetica,sans-Serif" font-weight="bold" font-size="12.00">varchar</text>
<text text-anchor="start" x="230.95" y="-47.9" font-family="Helvetica,sans-Serif" font-size="12.00">error </text>
<text text-anchor="start" x="264.95" y="-47.9" font-family="Helvetica,sans-Serif" font-weight="bold" font-size="12.00">varchar</text>
<text text-anchor="start" x="230.95" y="-30.9" font-family="Helvetica,sans-Serif" font-size="12.00">msg_count </text>
<text text-anchor="start" x="300.95" y="-30.9" font-family="Helvetica,sans-Serif" font-weight="bold" font-size="12.00">integer</text>
</g>
<!-- message -->
<g id="node3" class="node">
<title>message</title>
<path fill="none" stroke="black" d="M202.76,-226.52C202.76,-226.52 389.76,-226.52 389.76,-226.52 395.76,-226.52 401.76,-232.52 401.76,-238.52 401.76,-238.52 401.76,-386.52 401.76,-386.52 401.76,-392.52 395.76,-398.52 389.76,-398.52 389.76,-398.52 202.76,-398.52 202.76,-398.52 196.76,-398.52 190.76,-392.52 190.76,-386.52 190.76,-386.52 190.76,-238.52 190.76,-238.52 190.76,-232.52 196.76,-226.52 202.76,-226.52"/>
<text text-anchor="start" x="264.26" y="-378.12" font-family="Helvetica,sans-Serif" font-weight="bold" font-size="13.00">message</text>
<polyline fill="none" stroke="black" points="190.76,-368.52 401.76,-368.52 "/>
<text text-anchor="start" x="198.26" y="-354.92" font-family="Helvetica,sans-Serif" font-size="12.00">id* </text>
<text text-anchor="start" x="219.26" y="-354.92" font-family="Helvetica,sans-Serif" font-weight="bold" font-size="12.00">integer</text>
<text text-anchor="start" x="198.26" y="-337.92" font-family="Helvetica,sans-Serif" font-size="12.00">pff_identifier </text>
<text text-anchor="start" x="277.26" y="-337.92" font-family="Helvetica,sans-Serif" font-weight="bold" font-size="12.00">integer</text>
<text text-anchor="start" x="198.26" y="-320.92" font-family="Helvetica,sans-Serif" font-size="12.00">date </text>
<text text-anchor="start" x="229.26" y="-320.92" font-family="Helvetica,sans-Serif" font-weight="bold" font-size="12.00">datetime</text>
<text text-anchor="start" x="198.26" y="-303.92" font-family="Helvetica,sans-Serif" font-size="12.00">headers </text>
<text text-anchor="start" x="251.26" y="-303.92" font-family="Helvetica,sans-Serif" font-weight="bold" font-size="12.00">varchar</text>
<text text-anchor="start" x="198.26" y="-286.92" font-family="Helvetica,sans-Serif" font-size="12.00">body </text>
<text text-anchor="start" x="232.26" y="-286.92" font-family="Helvetica,sans-Serif" font-weight="bold" font-size="12.00">varchar</text>
<text text-anchor="start" x="198.26" y="-269.92" font-family="Helvetica,sans-Serif" font-size="12.00">processing_start_time </text>
<text text-anchor="start" x="333.26" y="-269.92" font-family="Helvetica,sans-Serif" font-weight="bold" font-size="12.00">datetime</text>
<text text-anchor="start" x="198.26" y="-252.92" font-family="Helvetica,sans-Serif" font-size="12.00">processing_end_time </text>
<text text-anchor="start" x="328.26" y="-252.92" font-family="Helvetica,sans-Serif" font-weight="bold" font-size="12.00">datetime</text>
<text text-anchor="start" x="198.26" y="-235.92" font-family="Helvetica,sans-Serif" font-size="12.00">file_report_id </text>
<text text-anchor="start" x="280.26" y="-235.92" font-family="Helvetica,sans-Serif" font-weight="bold" font-size="12.00">integer</text>
</g>
<!-- message&#45;&gt;file_report -->
<g id="edge1" class="edge">
<title>message&#45;&gt;file_report</title>
<path fill="none" stroke="black" stroke-width="0.9" d="M296.13,-226.46C296.12,-218.33 296.1,-210.05 296.09,-201.84"/>
<polygon fill="black" stroke="black" stroke-width="0.9" points="298.89,-201.66 296.08,-193.66 293.29,-201.67 298.89,-201.66"/>
</g>
<!-- attachment -->
<g id="node4" class="node">
<title>attachment</title>
<path fill="none" stroke="black" d="M12,-141.07C12,-141.07 133,-141.07 133,-141.07 139,-141.07 145,-147.07 145,-153.07 145,-153.07 145,-267.07 145,-267.07 145,-273.07 139,-279.07 133,-279.07 133,-279.07 12,-279.07 12,-279.07 6,-279.07 0,-273.07 0,-267.07 0,-267.07 0,-153.07 0,-153.07 0,-147.07 6,-141.07 12,-141.07"/>
<text text-anchor="start" x="30.5" y="-258.67" font-family="Helvetica,sans-Serif" font-weight="bold" font-size="13.00">attachment</text>
<polyline fill="none" stroke="black" points="0,-249.07 145,-249.07 "/>
<text text-anchor="start" x="7.5" y="-235.47" font-family="Helvetica,sans-Serif" font-size="12.00">id* </text>
<text text-anchor="start" x="28.5" y="-235.47" font-family="Helvetica,sans-Serif" font-weight="bold" font-size="12.00">integer</text>
<text text-anchor="start" x="7.5" y="-218.47" font-family="Helvetica,sans-Serif" font-size="12.00">name </text>
<text text-anchor="start" x="46.5" y="-218.47" font-family="Helvetica,sans-Serif" font-weight="bold" font-size="12.00">varchar</text>
<text text-anchor="start" x="7.5" y="-201.47" font-family="Helvetica,sans-Serif" font-size="12.00">mime_type </text>
<text text-anchor="start" x="78.5" y="-201.47" font-family="Helvetica,sans-Serif" font-weight="bold" font-size="12.00">varchar</text>
<text text-anchor="start" x="7.5" y="-184.47" font-family="Helvetica,sans-Serif" font-size="12.00">size </text>
<text text-anchor="start" x="34.5" y="-184.47" font-family="Helvetica,sans-Serif" font-weight="bold" font-size="12.00">integer</text>
<text text-anchor="start" x="7.5" y="-167.47" font-family="Helvetica,sans-Serif" font-size="12.00">message_id </text>
<text text-anchor="start" x="82.5" y="-167.47" font-family="Helvetica,sans-Serif" font-weight="bold" font-size="12.00">integer</text>
<text text-anchor="start" x="7.5" y="-150.47" font-family="Helvetica,sans-Serif" font-size="12.00">file_report_id </text>
<text text-anchor="start" x="89.5" y="-150.47" font-family="Helvetica,sans-Serif" font-weight="bold" font-size="12.00">integer</text>
</g>
<!-- attachment&#45;&gt;file_report -->
<g id="edge2" class="edge">
<title>attachment&#45;&gt;file_report</title>
<path fill="none" stroke="black" stroke-width="0.9" d="M145.05,-176.77C167.81,-166.32 193.07,-154.73 216.3,-144.06"/>
<polygon fill="black" stroke="black" stroke-width="0.9" points="217.66,-146.52 223.76,-140.63 215.33,-141.43 217.66,-146.52"/>
</g>
<!-- attachment&#45;&gt;message -->
<g id="edge3" class="edge">
<title>attachment&#45;&gt;message</title>
<path fill="none" stroke="black" stroke-width="0.9" d="M145.15,-243.33C157.31,-248.9 170.18,-254.79 183.07,-260.7"/>
<polygon fill="black" stroke="black" stroke-width="0.9" points="182.22,-263.39 190.66,-264.17 184.55,-258.29 182.22,-263.39"/>
</g>
<!-- entity -->
<g id="node5" class="node">
<title>entity</title>
<path fill="none" stroke="black" d="M452.59,-140.93C452.59,-140.93 573.59,-140.93 573.59,-140.93 579.59,-140.93 585.59,-146.93 585.59,-152.93 585.59,-152.93 585.59,-266.93 585.59,-266.93 585.59,-272.93 579.59,-278.93 573.59,-278.93 573.59,-278.93 452.59,-278.93 452.59,-278.93 446.59,-278.93 440.59,-272.93 440.59,-266.93 440.59,-266.93 440.59,-152.93 440.59,-152.93 440.59,-146.93 446.59,-140.93 452.59,-140.93"/>
<text text-anchor="start" x="492.09" y="-258.53" font-family="Helvetica,sans-Serif" font-weight="bold" font-size="13.00">entity</text>
<polyline fill="none" stroke="black" points="440.59,-248.93 585.59,-248.93 "/>
<text text-anchor="start" x="448.09" y="-235.33" font-family="Helvetica,sans-Serif" font-size="12.00">id* </text>
<text text-anchor="start" x="469.09" y="-235.33" font-family="Helvetica,sans-Serif" font-weight="bold" font-size="12.00">integer</text>
<text text-anchor="start" x="448.09" y="-218.33" font-family="Helvetica,sans-Serif" font-size="12.00">text </text>
<text text-anchor="start" x="476.09" y="-218.33" font-family="Helvetica,sans-Serif" font-weight="bold" font-size="12.00">varchar</text>
<text text-anchor="start" x="448.09" y="-201.33" font-family="Helvetica,sans-Serif" font-size="12.00">label_ </text>
<text text-anchor="start" x="487.09" y="-201.33" font-family="Helvetica,sans-Serif" font-weight="bold" font-size="12.00">varchar</text>
<text text-anchor="start" x="448.09" y="-184.33" font-family="Helvetica,sans-Serif" font-size="12.00">filepath </text>
<text text-anchor="start" x="497.09" y="-184.33" font-family="Helvetica,sans-Serif" font-weight="bold" font-size="12.00">varchar</text>
<text text-anchor="start" x="448.09" y="-167.33" font-family="Helvetica,sans-Serif" font-size="12.00">message_id </text>
<text text-anchor="start" x="523.09" y="-167.33" font-family="Helvetica,sans-Serif" font-weight="bold" font-size="12.00">integer</text>
<text text-anchor="start" x="448.09" y="-150.33" font-family="Helvetica,sans-Serif" font-size="12.00">file_report_id </text>
<text text-anchor="start" x="530.09" y="-150.33" font-family="Helvetica,sans-Serif" font-weight="bold" font-size="12.00">integer</text>
</g>
<!-- entity&#45;&gt;file_report -->
<g id="edge4" class="edge">
<title>entity&#45;&gt;file_report</title>
<path fill="none" stroke="black" stroke-width="0.9" d="M440.48,-175.68C419.64,-165.85 396.8,-155.07 375.56,-145.05"/>
<polygon fill="black" stroke="black" stroke-width="0.9" points="376.55,-142.42 368.12,-141.54 374.16,-147.49 376.55,-142.42"/>
</g>
<!-- entity&#45;&gt;message -->
<g id="edge5" class="edge">
<title>entity&#45;&gt;message</title>
<path fill="none" stroke="black" stroke-width="0.9" d="M440.59,-244.23C430.48,-249.01 419.91,-254.01 409.28,-259.04"/>
<polygon fill="black" stroke="black" stroke-width="0.9" points="407.95,-256.58 401.92,-262.53 410.34,-261.64 407.95,-256.58"/>
</g>
</g>
</svg>
